<svg width="26" height="24" viewBox="0 0 26 24" fill="none" xmlns="http://www.w3.org/2000/svg">
<path d="M2.25304 10.7539H24.1792C24.4699 10.7539 24.7488 10.8798 24.9544 11.1038C25.16 11.3279 25.2755 11.6318 25.2755 11.9487C25.2755 12.2656 25.16 12.5694 24.9544 12.7935C24.7488 13.0176 24.4699 13.1434 24.1792 13.1434H2.25304C1.96229 13.1434 1.68344 13.0176 1.47784 12.7935C1.27224 12.5694 1.15674 12.2656 1.15674 11.9487C1.15674 11.6318 1.27224 11.3279 1.47784 11.1038C1.68344 10.8798 1.96229 10.7539 2.25304 10.7539Z" fill="black"/>
<path d="M2.70703 11.9492L11.7998 21.8563C12.0056 22.0806 12.1213 22.3849 12.1213 22.7022C12.1213 23.0194 12.0056 23.3237 11.7998 23.5481C11.5939 23.7724 11.3147 23.8984 11.0236 23.8984C10.7325 23.8984 10.4533 23.7724 10.2474 23.5481L0.380675 12.7951C0.278579 12.6841 0.197578 12.5523 0.14231 12.4071C0.0870426 12.262 0.0585938 12.1064 0.0585938 11.9492C0.0585937 11.7921 0.0870426 11.6365 0.14231 11.4913C0.197578 11.3462 0.278579 11.2143 0.380675 11.1033L10.2474 0.350382C10.4533 0.126036 10.7325 0 11.0236 0C11.3147 0 11.5939 0.126036 11.7998 0.350382C12.0056 0.574728 12.1213 0.879007 12.1213 1.19628C12.1213 1.51355 12.0056 1.81783 11.7998 2.04218L2.70703 11.9492Z" fill="black"/>
</svg>
