<svg width="16" height="26" viewBox="0 0 16 26" fill="none" xmlns="http://www.w3.org/2000/svg">
<path d="M0.931653 23.2451L0.932609 23.2442L12.3571 12.912L12.358 12.9112C12.4139 12.8608 12.4139 12.8284 12.4139 12.8253V12.8252V12.8252C12.4139 12.8221 12.4139 12.7905 12.3602 12.7413L0.939082 2.76627L0.939017 2.76635L0.931654 2.75965C0.409385 2.28486 0.358907 1.48117 0.79245 0.951281L0.800697 0.941201L0.80946 0.931563C1.28425 0.409295 2.08794 0.358813 2.61783 0.792359L2.62434 0.797687L2.63067 0.80323L14.0552 10.8107L14.0565 10.8119C15.2802 11.8916 15.3189 13.7146 14.0921 14.8331L14.0906 14.8345L2.66707 25.1658C2.66686 25.166 2.66665 25.1662 2.66645 25.1664C2.13257 25.6511 1.31536 25.5972 0.838981 25.0732C0.353656 24.5393 0.407432 23.7216 0.931653 23.2451Z" fill="white" stroke="white"/>
</svg>
