<svg width="14" height="9" viewBox="0 0 14 9" fill="none" xmlns="http://www.w3.org/2000/svg">
<path d="M1.56997 1.07282L1.57014 1.07301L6.77272 6.99976L6.77288 6.99994C6.82374 7.05816 6.87929 7.08059 6.92797 7.08059C6.97651 7.08059 7.03187 7.05829 7.0826 7.00046L12.1063 1.07432L12.1063 1.0743L12.1076 1.07282C12.2921 0.863756 12.6067 0.843588 12.8119 1.01658L12.812 1.01647L12.8158 1.02005C13.0177 1.20916 13.0362 1.52837 12.8703 1.73718L12.8704 1.73721L12.8682 1.73976L7.82914 7.66651L7.8289 7.66678C7.3441 8.23286 6.52976 8.25019 6.0281 7.68332L6.02784 7.68302L0.825425 1.75647C0.82541 1.75645 0.825395 1.75643 0.825379 1.75642C0.640354 1.54667 0.659544 1.22478 0.861777 1.03537C1.06764 0.842553 1.38511 0.863308 1.56997 1.07282Z" fill="black" stroke="black" stroke-width="0.2"/>
</svg>
