<svg width="11" height="17" viewBox="0 0 11 17" fill="none" xmlns="http://www.w3.org/2000/svg">
<path d="M1.69317 14.7707L1.69411 14.7698L8.48816 8.39219L1.7005 2.239L1.70043 2.23907L1.69317 2.23221C1.30701 1.86784 1.27198 1.26175 1.59032 0.857907L1.59833 0.847741L1.60686 0.838003C1.9636 0.430703 2.57722 0.387111 2.98212 0.730972L2.98857 0.736448L2.99483 0.742138L9.87409 6.99682L9.87543 6.99805C10.6911 7.74505 10.717 9.00395 9.89919 9.77793L9.89771 9.77932L3.01939 16.2361C3.01925 16.2362 3.01911 16.2363 3.01896 16.2365C2.61102 16.621 1.98327 16.5744 1.62463 16.1649C1.26667 15.7562 1.30538 15.1367 1.69317 14.7707Z" fill="#D9D9D9" stroke="#D9D9D9"/>
</svg>
