<svg width="32" height="31" viewBox="0 0 32 31" fill="none" xmlns="http://www.w3.org/2000/svg">
<g clip-path="url(#clip0_0_3)">
<path d="M31.1729 15.8481C31.1729 14.8277 31.081 13.859 30.9235 12.9161H16.0886V18.7414H24.5825C24.2018 20.6531 23.0859 22.2676 21.4318 23.3655V27.2405H26.4993C29.4662 24.5409 31.1729 20.5627 31.1729 15.8481Z" fill="#4285F4"/>
<path d="M16.0885 30.9999C20.342 30.9999 23.8998 29.6049 26.4992 27.2412L21.4317 23.3663C20.0138 24.2962 18.2153 24.8646 16.0885 24.8646C11.9793 24.8646 8.50037 22.1392 7.25319 18.458H2.02815V22.4492C4.61441 27.5125 9.93134 30.9999 16.0885 30.9999Z" fill="#34A853"/>
<path d="M7.25326 18.4573C6.92505 17.5273 6.75438 16.5327 6.75438 15.4994C6.75438 14.4661 6.93818 13.4715 7.25326 12.5415V8.55034H2.02822C0.951704 10.6428 0.334679 12.9936 0.334679 15.4994C0.334679 18.0052 0.951704 20.356 2.02822 22.4485L7.25326 18.4573Z" fill="#FBBC05"/>
<path d="M16.0885 6.13533C18.4122 6.13533 20.4864 6.92324 22.1275 8.4603L26.6173 4.04286C23.8998 1.53706 20.342 0 16.0885 0C9.93134 0 4.61441 3.48745 2.02815 8.55072L7.25318 12.5419C8.50037 8.86071 11.9793 6.13533 16.0885 6.13533Z" fill="#EA4335"/>
</g>
<defs>
<clipPath id="clip0_0_3">
<rect width="31.4194" height="30.9126" fill="white" transform="scale(1.00281)"/>
</clipPath>
</defs>
</svg>
