<svg width="22" height="22" viewBox="0 0 22 22" fill="none" xmlns="http://www.w3.org/2000/svg">
<path d="M20.1632 5.46735L10.6809 14.9661C9.7367 15.912 6.93374 16.3501 6.30756 15.7228C5.68137 15.0956 6.10877 12.2877 7.05302 11.3418L16.5452 1.83308C16.7793 1.57725 17.0627 1.3716 17.3783 1.22852C17.6939 1.08544 18.0352 1.00788 18.3816 1.00057C18.7279 0.99327 19.0722 1.05634 19.3936 1.18598C19.7149 1.31563 20.0067 1.50919 20.2513 1.75493C20.496 2.00066 20.6884 2.29349 20.8169 2.61575C20.9454 2.93803 21.0075 3.28303 20.9993 3.62998C20.991 3.97692 20.9126 4.31863 20.769 4.63441C20.6253 4.95019 20.4192 5.23355 20.1632 5.46735Z" stroke="black" stroke-linecap="round" stroke-linejoin="round"/>
<path d="M9.94551 3.07764H4.97578C3.92133 3.07764 2.91014 3.49724 2.16454 4.24415C1.41894 4.99106 1 6.00408 1 7.06037V17.0172C1 18.0735 1.41894 19.0865 2.16454 19.8334C2.91014 20.5803 3.92133 20.9999 4.97578 20.9999H15.9092C18.1058 20.9999 18.891 19.2077 18.891 17.0172V12.0388" stroke="black" stroke-linecap="round" stroke-linejoin="round"/>
</svg>
