<svg width="25" height="25" viewBox="0 0 25 25" fill="none" xmlns="http://www.w3.org/2000/svg">
<path d="M7.8999 10.7749H17.0999" stroke="black" stroke-width="1.5" stroke-linecap="round"/>
<path d="M7.8999 14.7998H14.2249" stroke="black" stroke-width="1.5" stroke-linecap="round"/>
<path d="M18.25 2.53849C16.5585 1.56002 14.5946 1 12.5 1C6.14872 1 1 6.14872 1 12.5C1 14.3397 1.43196 16.0783 2.19998 17.6204C2.40408 18.0301 2.47201 18.4985 2.35369 18.9407L1.66874 21.5007C1.37139 22.6119 2.38806 23.6286 3.49935 23.3313L6.0593 22.6463C6.50152 22.528 6.96989 22.596 7.37966 22.8C8.92163 23.5681 10.6603 24 12.5 24C18.8512 24 24 18.8512 24 12.5C24 10.4054 23.44 8.4415 22.4615 6.75" stroke="black" stroke-width="1.5" stroke-linecap="round"/>
</svg>
