<svg width="25" height="29" viewBox="0 0 25 29" fill="none" xmlns="http://www.w3.org/2000/svg">
<path d="M5.38351 24.7445C6.49292 23.564 8.18411 23.6579 9.15822 24.9458L10.5247 26.7568C11.6206 28.1922 13.393 28.1922 14.4888 26.7568L15.8553 24.9458C16.8294 23.6579 18.5206 23.564 19.63 24.7445C22.0382 27.2934 24 26.4482 24 22.8798V7.76115C24 2.35491 22.7282 1 17.6141 1H7.38587C2.27176 1 1 2.35491 1 7.76115V22.8664C1.01353 26.4482 2.98881 27.28 5.38351 24.7445Z" stroke="#292D32" stroke-width="1.5" stroke-linecap="round" stroke-linejoin="round"/>
<path d="M7.1333 7.13281H14.5745" stroke="#292D32" stroke-width="1.5" stroke-linecap="round" stroke-linejoin="round"/>
<path d="M7.1333 11.7329H18.6333" stroke="#292D32" stroke-width="1.5" stroke-linecap="round" stroke-linejoin="round"/>
<path d="M7.1333 16.333H17.1" stroke="#292D32" stroke-width="1.5" stroke-linecap="round" stroke-linejoin="round"/>
</svg>
