<svg width="27" height="27" viewBox="0 0 27 27" fill="none" xmlns="http://www.w3.org/2000/svg">
<path d="M5.81997 3.77778H25.8623L23.1355 13.5H7.28827M24.4989 19.0556H8.13807L5.41126 1H1.32104M9.50147 24.6111C9.50147 25.3782 8.89105 26 8.13807 26C7.38509 26 6.77466 25.3782 6.77466 24.6111C6.77466 23.844 7.38509 23.2222 8.13807 23.2222C8.89105 23.2222 9.50147 23.844 9.50147 24.6111ZM24.4989 24.6111C24.4989 25.3782 23.8885 26 23.1355 26C22.3825 26 21.7721 25.3782 21.7721 24.6111C21.7721 23.844 22.3825 23.2222 23.1355 23.2222C23.8885 23.2222 24.4989 23.844 24.4989 24.6111Z" stroke="#878787" stroke-width="2" stroke-linecap="round" stroke-linejoin="round"/>
</svg>
