<svg width="27" height="27" viewBox="0 0 27 27" fill="none" xmlns="http://www.w3.org/2000/svg">
<path d="M8 13H23L26 4L6.01658 4.07459L8 13Z" fill="#EFD7AE"/>
<path d="M5.58301 3.77778H26L23.2222 13.5H7.07876M24.6111 19.0556H7.94444L5.16667 1H1M9.33333 24.6111C9.33333 25.3782 8.7115 26 7.94444 26C7.17739 26 6.55556 25.3782 6.55556 24.6111C6.55556 23.844 7.17739 23.2222 7.94444 23.2222C8.7115 23.2222 9.33333 23.844 9.33333 24.6111ZM24.6111 24.6111C24.6111 25.3782 23.9893 26 23.2222 26C22.4551 26 21.8333 25.3782 21.8333 24.6111C21.8333 23.844 22.4551 23.2222 23.2222 23.2222C23.9893 23.2222 24.6111 23.844 24.6111 24.6111Z" stroke="#DEAE78" stroke-width="2" stroke-linecap="round" stroke-linejoin="round"/>
</svg>
