<svg width="28" height="25" viewBox="0 0 28 25" fill="none" xmlns="http://www.w3.org/2000/svg">
<path d="M19.5864 25H8.40595C7.91198 24.9986 7.42697 24.868 6.99903 24.6213C6.57108 24.3746 6.21507 24.0203 5.9663 23.5935L0.376083 13.9065C0.129689 13.4787 0 12.9937 0 12.5C0 12.0063 0.129689 11.5213 0.376083 11.0935L5.9663 1.40651C6.21507 0.979748 6.57108 0.625438 6.99903 0.378719C7.42697 0.132 7.91198 0.00144373 8.40595 0H19.5864C20.0804 0.00144373 20.5654 0.132 20.9933 0.378719C21.4213 0.625438 21.7773 0.979748 22.026 1.40651L27.6163 11.0935C27.8627 11.5213 27.9923 12.0063 27.9923 12.5C27.9923 12.9937 27.8627 13.4787 27.6163 13.9065L22.026 23.5935C21.7773 24.0203 21.4213 24.3746 20.9933 24.6213C20.5654 24.868 20.0804 24.9986 19.5864 25ZM8.40595 1.53437C8.18128 1.53496 7.96067 1.59426 7.76599 1.70641C7.5713 1.81855 7.40932 1.97964 7.29609 2.17369L1.72121 11.8607C1.60798 12.0547 1.54831 12.2753 1.54831 12.5C1.54831 12.7247 1.60798 12.9453 1.72121 13.1393L7.29609 22.8263C7.40932 23.0204 7.5713 23.1814 7.76599 23.2936C7.96067 23.4057 8.18128 23.465 8.40595 23.4656H19.5864C19.8111 23.465 20.0317 23.4057 20.2264 23.2936C20.421 23.1814 20.583 23.0204 20.6963 22.8263L26.2711 13.1393C26.3844 12.9453 26.444 12.7247 26.444 12.5C26.444 12.2753 26.3844 12.0547 26.2711 11.8607L20.6963 2.17369C20.583 1.97964 20.421 1.81855 20.2264 1.70641C20.0317 1.59426 19.8111 1.53496 19.5864 1.53437H8.40595Z" fill="#878787"/>
<path d="M14.1695 17.8171C13.0622 17.8171 11.9798 17.4887 11.0592 16.8735C10.1385 16.2584 9.42094 15.384 8.99721 14.361C8.57347 13.338 8.4626 12.2124 8.67862 11.1264C8.89464 10.0404 9.42784 9.04283 10.2108 8.25987C10.9938 7.47691 11.9913 6.94371 13.0773 6.72769C14.1633 6.51167 15.289 6.62254 16.312 7.04628C17.3349 7.47001 18.2093 8.18758 18.8245 9.10825C19.4396 10.0289 19.768 11.1113 19.768 12.2186C19.7665 13.7029 19.1762 15.1261 18.1266 16.1757C17.077 17.2253 15.6539 17.8156 14.1695 17.8171ZM14.1695 8.28799C13.3921 8.28799 12.6322 8.51851 11.9858 8.95041C11.3394 9.38231 10.8356 9.99619 10.5381 10.7144C10.2406 11.4326 10.1628 12.2229 10.3144 12.9854C10.4661 13.7479 10.8405 14.4482 11.3902 14.9979C11.9399 15.5476 12.6402 15.922 13.4027 16.0737C14.1652 16.2253 14.9555 16.1475 15.6737 15.85C16.3919 15.5525 17.0058 15.0487 17.4377 14.4023C17.8696 13.7559 18.1001 12.996 18.1001 12.2186C18.0986 11.1766 17.6841 10.1777 16.9472 9.44086C16.2104 8.70404 15.2115 8.28946 14.1695 8.28799Z" fill="#878787"/>
</svg>
